<svg viewBox="0 0 177.78 100" xmlns="http://www.w3.org/2000/svg"><g fill="#394149"><path d="m55.32 42.25h3v14.45h-3z"/><path d="m60 51.75a5.25 5.25 0 1 1 5.22 5.25 5.18 5.18 0 0 1 -5.22-5.25zm7.52 0a2.28 2.28 0 1 0 -2.28 2.34 2.22 2.22 0 0 0 2.26-2.34z"/><path d="m82.31 46.8v9.41c0 3.32-2.6 4.73-5.23 4.73a5 5 0 0 1 -4.69-2.4l2.53-1.46a2.27 2.27 0 0 0 2.26 1.25 2 2 0 0 0 2.24-2.12v-.91a3.53 3.53 0 0 1 -2.89 1.28 5 5 0 0 1 0-10 3.53 3.53 0 0 1 2.89 1.28v-1zm-2.89 4.75a2.4 2.4 0 1 0 -2.4 2.3 2.24 2.24 0 0 0 2.4-2.3z"/><path d="m84 51.75a5.25 5.25 0 1 1 5.24 5.25 5.19 5.19 0 0 1 -5.24-5.25zm7.52 0a2.28 2.28 0 1 0 -2.27 2.34 2.22 2.22 0 0 0 2.26-2.34z"/><path d="m95.87 44.15a1.78 1.78 0 1 1 1.78 1.78 1.8 1.8 0 0 1 -1.78-1.78zm.29 2.65h3v9.9h-3z"/><path d="m112 51.75a5 5 0 0 1 -4.77 5.25 3.72 3.72 0 0 1 -3-1.21v4.89h-3v-13.88h3v.93a3.71 3.71 0 0 1 3-1.2 5 5 0 0 1 4.77 5.22zm-3 0a2.36 2.36 0 1 0 -2.35 2.42 2.26 2.26 0 0 0 2.35-2.42z"/><path d="m121.13 53.73c0 2.28-2 3.25-4.12 3.25a4.34 4.34 0 0 1 -4.26-2.36l2.58-1.46a1.62 1.62 0 0 0 1.67 1.17c.71 0 1.07-.22 1.07-.62 0-1.09-4.87-.51-4.87-3.94 0-2.16 1.82-3.24 3.88-3.24a4.34 4.34 0 0 1 3.92 2.11l-2.58 1.36a1.46 1.46 0 0 0 -1.33-.87c-.52 0-.83.2-.83.55 0 1.14 4.87.39 4.87 4.05z"/><path d="m132 46.8v9.9h-3v-.93a3.41 3.41 0 0 1 -2.82 1.23c-2 0-3.71-1.43-3.71-4.1v-6.1h3v5.65a1.64 1.64 0 0 0 1.73 1.8c1.08 0 1.84-.64 1.84-2v-5.45z"/><path d="m149 50.62v6.08h-3v-5.82c0-1-.47-1.62-1.42-1.62s-1.55.69-1.55 1.86v5.58h-3v-5.82c0-1-.47-1.62-1.42-1.62s-1.55.69-1.55 1.86v5.58h-3v-9.9h3v.91a3.06 3.06 0 0 1 2.66-1.18 2.93 2.93 0 0 1 2.59 1.3 3.26 3.26 0 0 1 2.87-1.3c2.34 0 3.82 1.62 3.82 4.09z"/><path d="m37.45 39.65v-4.25h-13.4v29.2h13.4v-4.25a10.35 10.35 0 0 1 0-20.7z"/><path d="m37.45 39.65v20.7a10.35 10.35 0 0 0 0-20.7z"/><circle cx="151.52" cy="44.54" r="2.2"/></g></svg>